<svg width="1440" height="722" viewBox="0 0 1440 722" fill="none" xmlns="http://www.w3.org/2000/svg">
<path d="M1440 40.1498L1405.6 36.6042C1371.2 32.7858 1302.4 25.6946 1233.92 23.7854C1165.28 21.8762 1097.12 25.6946 1028.48 31.4222C960 37.4225 891.2 45.6047 822.72 48.8776C754.08 51.8777 685.92 50.2412 617.28 44.7864C548.8 39.3317 480 30.0585 411.52 20.5126C342.88 10.9667 274.72 1.14805 206.08 0.0571147C137.6 -0.761117 68.8 7.42108 34.4 11.5122L0.00012135 15.6033L0.000183105 722L34.4001 722C68.8001 722 137.6 722 206.08 722C274.72 722 342.88 722 411.52 722C480 722 548.8 722 617.28 722C685.92 722 754.08 722 822.72 722C891.2 722 960 722 1028.48 722C1097.12 722 1165.28 722 1233.92 722C1302.4 722 1371.2 722 1405.6 722L1440 722L1440 40.1498Z" fill="#02204C"/>
</svg>
