<svg width="281" height="281" viewBox="0 0 281 281" fill="none" xmlns="http://www.w3.org/2000/svg">
<mask id="mask0_27_14" style="mask-type:alpha" maskUnits="userSpaceOnUse" x="0" y="0" width="281" height="281">
<path d="M281 140.5C281 62.904 218.096 0 140.5 0C62.904 0 0 62.904 0 140.5C0 218.096 62.904 281 140.5 281C218.096 281 281 218.096 281 140.5Z" fill="white"/>
</mask>
<g mask="url(#mask0_27_14)">
<path d="M281 0H0V281H281V0Z" fill="#FFA5A5"/>
<path d="M169.648 -53.368C88.9422 -81.1571 0.990151 -38.26 -26.7989 42.4453C-54.588 123.151 -11.6909 211.103 69.0144 238.892C149.72 266.681 237.672 223.784 265.461 143.078C293.25 62.3731 250.353 -25.579 169.648 -53.368Z" fill="#FF7A7A"/>
<path d="M107.124 144.45C121.322 154.602 136.741 157.044 153.381 151.777" stroke="#02204C" stroke-width="3.55556" stroke-linecap="round"/>
<path d="M86.246 101.63C86.9204 97.3721 84.8784 93.5104 81.685 93.0047C78.4917 92.4989 75.3562 95.5405 74.6819 99.7983C74.0075 104.056 76.0495 107.918 79.2429 108.424C82.4363 108.929 85.5717 105.888 86.246 101.63Z" fill="#02204C"/>
<path d="M194.179 118.724C194.853 114.466 192.811 110.604 189.618 110.098C186.424 109.593 183.289 112.634 182.614 116.892C181.94 121.15 183.982 125.012 187.175 125.517C190.369 126.023 193.504 122.981 194.179 118.724Z" fill="#02204C"/>
<path d="M182 77.5C164 67.4998 72 54 68.5 53C65 52 34 47.5 34 47.5H34.5L35 47L35.5 46.5L36 46L36.5 45.5L37 45L38.5 43.5L40 42L41.5 40.5L43 39L44.5 37.5L45.5 36.5L47 35L48.5 34L49.5 33L51.5 31.5L52.5 30.5L54 29.5L55 28.5L56.5 27.5L58 26.5L60 25L63 23L68.5 19.5L72 17.5L74 16.5L76.5 15L79.5 13.5L83 12L86.5 10.5L91 8.5L95.5 7L102.5 5L108 3.5L113 2.5L118 1.5L123 1L131 0H137H141H147.5L153 0.5L158.5 1L165 2L170 3L174.5 4L179.5 5.5L184.5 7L190 9L195 11C196.667 11.6667 200.2 13.1 201 13.5C202 14 201 13.5 204.5 15.5C205.5 15.5 220 24 222.5 26.5C222.5 25 233.5 35.5 234 36C234.5 36.5 245.882 47.9143 246.235 48.2678C246.735 48.7678 257.5 62.5 257.735 63.2678C258 64 264.333 75.3332 267.5 81.4998C267.5 81.4998 213 80 210.5 83.4998C209.682 84.6454 210.685 78.934 212.405 70.7317C202.241 78.3058 189.67 81.761 182 77.5Z" fill="#FF5757"/>
<path d="M222.5 26.5C245 55 200 87.5002 182 77.5C164 67.4998 72 54 68.5 53C65 52 34 47.5 34 47.5H34.5L35 47L35.5 46.5L36 46L36.5 45.5L37 45L38.5 43.5L40 42L41.5 40.5L43 39L44.5 37.5L45.5 36.5L47 35L48.5 34L49.5 33L51.5 31.5L52.5 30.5L54 29.5L55 28.5L56.5 27.5L58 26.5L60 25L63 23L68.5 19.5L72 17.5L74 16.5L76.5 15L79.5 13.5L83 12L86.5 10.5L91 8.5L95.5 7L102.5 5L108 3.5L113 2.5L118 1.5L123 1L131 0H137H141H147.5L153 0.5L158.5 1L165 2L170 3L174.5 4L179.5 5.5L184.5 7L190 9L195 11C196.667 11.6667 200.2 13.1 201 13.5C202 14 201 13.5 204.5 15.5C205.5 15.5 220 24 222.5 26.5ZM222.5 26.5C222.5 26.5 208 86.9997 210.5 83.4998C213 80 267.5 81.4998 267.5 81.4998C264.333 75.3332 258 64 257.735 63.2678C257.5 62.5 246.735 48.7678 246.235 48.2678C245.882 47.9143 234.5 36.5 234 36C233.5 35.5 222.5 25 222.5 26.5Z" stroke="#FF5757"/>
<rect x="54.5119" y="79.7042" width="52.72" height="32.175" transform="rotate(8.45099 54.5119 79.7042)" stroke="#FF5757" stroke-width="3"/>
<rect x="163.541" y="96.4485" width="52.7221" height="32.175" transform="rotate(8.45099 163.541 96.4485)" stroke="#FF5757" stroke-width="3"/>
</g>
</svg>
