<svg width="1440" height="562" viewBox="0 0 1440 562" fill="none" xmlns="http://www.w3.org/2000/svg">
<path d="M0 530.47L34.4 533.254C68.8 536.253 137.6 541.821 206.08 543.321C274.72 544.82 342.88 541.821 411.52 537.324C480 532.611 548.8 526.186 617.28 523.616C685.92 521.259 754.08 522.545 822.72 526.828C891.2 531.112 960 538.394 1028.48 545.891C1097.12 553.388 1165.28 561.098 1233.92 561.955C1302.4 562.598 1371.2 556.172 1405.6 552.959L1440 549.746V-5H1405.6C1371.2 -5 1302.4 -5 1233.92 -5C1165.28 -5 1097.12 -5 1028.48 -5C960 -5 891.2 -5 822.72 -5C754.08 -5 685.92 -5 617.28 -5C548.8 -5 480 -5 411.52 -5C342.88 -5 274.72 -5 206.08 -5C137.6 -5 68.8 -5 34.4 -5H0V530.47Z" fill="#02204C"/>
</svg>
