<svg width="70" height="6" viewBox="0 0 70 6" fill="none" xmlns="http://www.w3.org/2000/svg">
<path d="M1.2 2.20007C1.36016 2.36022 1.51976 2.91994 1.67992 3.24024C1.99968 4.20007 2.48015 5.40038 3.60006 5.40038C4.72003 5.40038 5.19992 4.20061 5.5202 3.24024C5.6 2.92048 5.76016 2.52037 5.92032 2.28041C6.08047 2.52037 6.24007 2.92048 6.32043 3.24024C6.64019 4.20007 7.12066 5.40038 8.24058 5.40038C9.36049 5.40038 9.84043 4.20061 10.1607 3.24024C10.2405 2.92048 10.4007 2.52037 10.5608 2.28041C10.721 2.52037 10.8806 2.92048 10.9609 3.24024C11.2807 4.20007 11.7612 5.40038 12.8811 5.40038C14.0011 5.40038 14.4809 4.20061 14.8012 3.24024C14.881 2.92048 15.0412 2.52037 15.2013 2.28041C15.3615 2.52037 15.5211 2.92048 15.6015 3.24024C15.9212 4.20007 16.4017 5.40038 17.5216 5.40038C18.6415 5.40038 19.1215 4.20061 19.4417 3.24024C19.5215 2.92048 19.6817 2.52037 19.8419 2.28041C20.002 2.52037 20.1616 2.92048 20.242 3.24024C20.5617 4.20007 21.0422 5.40038 22.1621 5.40038C23.2821 5.40038 23.762 4.20061 24.0823 3.24024C24.1621 2.92048 24.3222 2.52037 24.4824 2.28041C24.6425 2.52037 24.8021 2.92048 24.8825 3.24024C25.2022 4.20007 25.6827 5.40038 26.8026 5.40038C27.9225 5.40038 28.4025 4.20061 28.7228 3.24024C28.8026 2.92048 28.9627 2.52037 29.1229 2.28041C29.283 2.52037 29.4426 2.92048 29.523 3.24024C29.8428 4.20007 30.3232 5.40038 31.4431 5.40038C32.5631 5.40038 33.043 4.20061 33.3633 3.24024C33.4431 2.92048 33.6032 2.52037 33.7634 2.28041C33.9236 2.52037 34.0832 2.92048 34.1635 3.24024C34.4833 4.20007 34.9637 5.40038 36.0837 5.40038C37.2036 5.40038 37.6835 4.20061 38.0038 3.24024C38.0836 2.92048 38.2438 2.52037 38.4039 2.28041C38.5641 2.52037 38.7237 2.92048 38.804 3.24024C39.1238 4.20007 39.6043 5.40038 40.7242 5.40038C41.8441 5.40038 42.324 4.20061 42.6443 3.24024C42.7241 2.92048 42.8843 2.52037 43.0444 2.28041C43.2046 2.52037 43.3642 2.92048 43.4445 3.24024C43.7643 4.20007 44.2448 5.40038 45.3647 5.40038C46.4846 5.40038 46.9645 4.20061 47.2848 3.24024C47.3646 2.92048 47.5248 2.52037 47.6849 2.28041C47.8451 2.52037 48.0047 2.92048 48.0851 3.24024C48.4048 4.20007 48.8853 5.40038 50.0052 5.40038C51.1252 5.40038 51.6051 4.20061 51.9253 3.24024C52.0051 2.92048 52.1653 2.52037 52.3255 2.28041C52.4856 2.52037 52.6452 2.92048 52.7256 3.24024C53.0453 4.20007 53.5258 5.40038 54.6457 5.40038C55.7656 5.40038 56.2456 4.20061 56.5659 3.24024C56.6456 2.92048 56.8058 2.52037 56.966 2.28041C57.1261 2.52037 57.2857 2.92048 57.3661 3.24024C57.6858 4.20007 58.1663 5.40038 59.2862 5.40038C60.4062 5.40038 60.8861 4.20061 61.2064 3.24024C61.2862 2.92048 61.4463 2.52037 61.6065 2.28041C61.7666 2.52037 61.9262 2.92048 62.0066 3.24024C62.3264 4.20007 62.8068 5.40038 63.9267 5.40038C65.0466 5.40038 65.5266 4.20061 65.8469 3.24024C65.9267 2.92048 66.0868 2.52037 66.247 2.28041C66.4072 2.52037 66.5667 2.92048 66.6471 3.24024C66.9669 4.20007 67.4473 5.40038 68.5673 5.40038C69.0472 5.40038 69.3675 5.08062 69.3675 4.60015C69.3675 4.20004 69.0477 3.88028 68.6476 3.79992C68.4875 3.63977 68.3279 3.08005 68.1677 2.75975C67.8479 1.79992 67.3675 0.599609 66.2476 0.599609C65.1276 0.599609 64.6477 1.79938 64.3274 2.75975C64.2476 3.07951 64.0874 3.47962 63.9273 3.71958C63.7671 3.47962 63.6075 3.07951 63.5272 2.75975C63.2074 1.79992 62.727 0.599609 61.607 0.599609C60.4871 0.599609 60.0072 1.79938 59.6869 2.75975C59.6071 3.07951 59.4469 3.47962 59.2868 3.71958C59.1266 3.47962 58.967 3.07951 58.8867 2.75975C58.5669 1.79992 58.0864 0.599609 56.9665 0.599609C55.8465 0.599609 55.3667 1.79938 55.0464 2.75975C54.9666 3.07951 54.8064 3.47962 54.6463 3.71958C54.4861 3.47962 54.3265 3.07951 54.2462 2.75975C53.9264 1.79992 53.4459 0.599609 52.326 0.599609C51.206 0.599609 50.7262 1.79938 50.4059 2.75975C50.3261 3.07951 50.1659 3.47962 50.0058 3.71958C49.8456 3.47962 49.686 3.07951 49.6056 2.75975C49.2859 1.79992 48.8054 0.599609 47.6855 0.599609C46.5655 0.599609 46.0856 1.79938 45.7654 2.75975C45.6856 3.07951 45.5254 3.47962 45.3652 3.71958C45.2051 3.47962 45.0455 3.07951 44.9651 2.75975C44.6454 1.79992 44.1649 0.599609 43.045 0.599609C41.925 0.599609 41.4451 1.79938 41.1248 2.75975C41.045 3.07951 40.8849 3.47962 40.7247 3.71958C40.5646 3.47962 40.405 3.07951 40.3246 2.75975C40.0049 1.79992 39.5244 0.599609 38.4045 0.599609C37.2845 0.599609 36.8046 1.79938 36.4843 2.75975C36.4045 3.07951 36.2444 3.47962 36.0842 3.71958C35.9241 3.47962 35.7645 3.07951 35.6841 2.75975C35.3643 1.79992 34.8839 0.599609 33.764 0.599609C32.644 0.599609 32.1641 1.79938 31.8438 2.75975C31.764 3.07951 31.6039 3.47962 31.4437 3.71958C31.2835 3.47962 31.1239 3.07951 31.0436 2.75975C30.7238 1.79992 30.2434 0.599609 29.1234 0.599609C28.0035 0.599609 27.5236 1.79938 27.2033 2.75975C27.1235 3.07951 26.9633 3.47962 26.8032 3.71958C26.643 3.47962 26.4834 3.07951 26.4031 2.75975C26.0833 1.79992 25.6028 0.599609 24.4829 0.599609C23.363 0.599609 22.8831 1.79938 22.5628 2.75975C22.483 3.07951 22.3228 3.47962 22.1627 3.71958C22.0025 3.47962 21.8429 3.07951 21.7626 2.75975C21.4428 1.79992 20.9623 0.599609 19.8424 0.599609C18.7224 0.599609 18.2426 1.79938 17.9223 2.75975C17.8425 3.07951 17.6823 3.47962 17.5222 3.71958C17.362 3.47962 17.2024 3.07951 17.122 2.75975C16.8023 1.79992 16.3218 0.599609 15.2019 0.599609C14.0819 0.599609 13.602 1.79938 13.2818 2.75975C13.202 3.07951 13.0418 3.47962 12.8816 3.71958C12.7215 3.47962 12.5619 3.07951 12.4815 2.75975C12.1618 1.79992 11.6813 0.599609 10.5614 0.599609C9.44142 0.599609 8.96153 1.79938 8.64124 2.75975C8.56145 3.07951 8.40129 3.47962 8.24113 3.71958C8.08097 3.47962 7.92137 3.07951 7.84102 2.75975C7.52126 1.79992 7.04079 0.599609 5.92088 0.599609C4.8009 0.599609 4.32102 1.79938 4.00073 2.75975C3.92093 3.07951 3.76078 3.47962 3.60062 3.71958C3.44046 3.47962 3.28086 3.07951 3.2005 2.75975C2.88075 1.79992 2.40028 0.599609 1.28036 0.599609C0.800447 0.599609 0.480133 0.919366 0.480133 1.39984C0.56049 1.80051 0.800447 2.12027 1.2 2.20007Z" fill="#F8F8FF"/>
</svg>
