<svg width="270" height="270" viewBox="0 0 270 270" fill="none" xmlns="http://www.w3.org/2000/svg">
<path d="M0 20C0 8.95431 8.9543 0 20 0H250C261.046 0 270 8.9543 270 20V250C270 261.046 261.046 270 250 270H20C8.95431 270 0 261.046 0 250V20Z" fill="#F8F8FF"/>
<path fill-rule="evenodd" clip-rule="evenodd" d="M34.625 17H38.5417V56.1667H34.625V17ZM83.8457 18.6445L87.2376 20.6028L67.6543 54.5222L64.2624 52.5638L83.8457 18.6445ZM44.679 57.8112L48.071 59.7695L28.4876 93.6888L25.0957 91.7305L44.679 57.8112ZM130.897 25.0957L132.855 28.4876L98.9362 48.071L96.9778 44.679L130.897 25.0957ZM52.5638 103.429L54.5222 106.821L20.6028 126.404L18.6445 123.012L52.5638 103.429ZM173.667 34.625V38.5417H134.5V34.625H173.667ZM56.1667 152.125V156.042H17V152.125H56.1667ZM211.503 44.4167L209.544 47.8086L175.625 28.2253L177.583 24.8333L211.503 44.4167ZM54.836 201.083L52.8777 204.475L18.9583 184.892L20.9167 181.5L54.836 201.083ZM243.904 52.5638L240.512 54.5222L220.929 20.6028L224.321 18.6445L243.904 52.5638ZM48.071 248.397L44.679 250.355L25.0957 216.436L28.4876 214.478L48.071 248.397ZM91.7305 64.2624L93.6888 67.6543L59.7695 87.2376L57.8112 83.8457L91.7305 64.2624ZM134.5 73.7917V77.7083H95.3333V73.7917H134.5ZM172.336 83.5833L170.378 86.9753L136.458 67.3919L138.417 64L172.336 83.5833ZM204.738 91.7305L201.346 93.6888L181.762 59.7695L185.154 57.8112L204.738 91.7305ZM234.375 95.3333H230.458V56.1667H234.375V95.3333ZM240.512 96.9778L243.904 98.9362L224.321 132.855L220.929 130.897L240.512 96.9778ZM95.3333 112.958V116.875H56.1667V112.958H95.3333ZM133.169 122.75L131.211 126.142L97.2917 106.559L99.25 103.167L133.169 122.75ZM165.571 130.897L162.179 132.855L142.596 98.9362L145.988 96.9778L165.571 130.897ZM195.208 134.5H191.292V95.3333H195.208V134.5ZM201.346 136.145L204.738 138.103L185.154 172.022L181.762 170.064L201.346 136.145ZM248.397 142.596L250.355 145.988L216.436 165.571L214.478 162.179L248.397 142.596ZM94.0027 161.917L92.0443 165.309L58.125 145.725L60.0833 142.333L94.0027 161.917ZM126.404 170.064L123.012 172.022L103.429 138.103L106.821 136.145L126.404 170.064ZM156.042 173.667H152.125V134.5H156.042V173.667ZM162.179 175.311L165.571 177.27L145.988 211.189L142.596 209.23L162.179 175.311ZM209.23 181.762L211.189 185.154L177.27 204.738L175.311 201.346L209.23 181.762ZM252 191.292V195.208H212.833V191.292H252ZM87.2376 209.23L83.8457 211.189L64.2624 177.27L67.6543 175.311L87.2376 209.23ZM116.875 212.833H112.958V173.667H116.875V212.833ZM123.012 214.478L126.404 216.436L106.821 250.355L103.429 248.397L123.012 214.478ZM170.064 220.929L172.022 224.321L138.103 243.904L136.145 240.512L170.064 220.929ZM212.833 230.458V234.375H173.667V230.458H212.833ZM250.669 240.25L248.711 243.642L214.792 224.059L216.75 220.667L250.669 240.25ZM77.7083 252H73.7917V212.833H77.7083V252Z" fill="#FF7A7A"/>
</svg>
